<svg width="100" height="54" viewBox="0 0 100 54" fill="none" xmlns="http://www.w3.org/2000/svg">
<path d="M77.0134 0L81.4531 10.7986H81.7201L89.8316 0H99.3952L86.2766 17.0909L94.0543 34.1818H84.7911L80.1846 23.2663H79.9175L71.7059 34.1818H62.0756L75.5447 17.0909L68.0173 0H77.0134Z" fill="#ED0827"/>
<path d="M34.2861 34.1818L39.9608 0H63.7947L62.6597 6.70952H47.0876L45.9527 13.7195H60.3064L59.1714 20.4457H44.8177L43.6828 27.4723H59.2549L58.1199 34.1818H34.2861Z" fill="#ED0827"/>
<path d="M34.766 0L29.0913 34.1818H22.0813L11.7834 14.4538H11.5497L8.26172 34.1818H0L5.67472 0H12.7848L22.9993 19.6946H23.283L26.521 0H34.766Z" fill="#ED0827"/>
<path d="M84.9315 53.8403V42.1597H91.9578V43.9335H86.8885V47.1046H91.5938V48.8783H86.8885V52.0665H92V53.8403H84.9315Z" fill="#211A1B"/>
<path d="M73.9774 53.8403V42.1597H81.0037V43.9335H75.9344V47.1046H80.6397V48.8783H75.9344V52.0665H81.0459V53.8403H73.9774Z" fill="#211A1B"/>
<path d="M60.8488 42.1597H63.059L65.7018 47.327H65.8073L68.4501 42.1597H70.6603L66.7304 49.4829V53.8403H64.7787V49.4829L60.8488 42.1597Z" fill="#211A1B"/>
<path d="M58.4152 48C58.4152 49.2586 58.1971 50.3365 57.7611 51.2338C57.3285 52.1274 56.7377 52.8118 55.9886 53.2871C55.2431 53.7624 54.3973 54 53.4514 54C52.5054 54 51.6578 53.7624 50.9088 53.2871C50.1633 52.808 49.5724 52.1217 49.1364 51.2281C48.7038 50.3308 48.4875 49.2548 48.4875 48C48.4875 46.7414 48.7038 45.6654 49.1364 44.7719C49.5724 43.8745 50.1633 43.1882 50.9088 42.7129C51.6578 42.2376 52.5054 42 53.4514 42C54.3973 42 55.2431 42.2376 55.9886 42.7129C56.7377 43.1882 57.3285 43.8745 57.7611 44.7719C58.1971 45.6654 58.4152 46.7414 58.4152 48ZM56.4476 48C56.4476 47.1141 56.3192 46.3669 56.0625 45.7586C55.8093 45.1464 55.4576 44.6844 55.0075 44.3726C54.5574 44.057 54.0386 43.8992 53.4514 43.8992C52.8641 43.8992 52.3454 44.057 51.8952 44.3726C51.4451 44.6844 51.0917 45.1464 50.8349 45.7586C50.5817 46.3669 50.4551 47.1141 50.4551 48C50.4551 48.8859 50.5817 49.635 50.8349 50.2471C51.0917 50.8555 51.4451 51.3175 51.8952 51.6331C52.3454 51.9449 52.8641 52.1008 53.4514 52.1008C54.0386 52.1008 54.5574 51.9449 55.0075 51.6331C55.4576 51.3175 55.8093 50.8555 56.0625 50.2471C56.3192 49.635 56.4476 48.8859 56.4476 48Z" fill="#211A1B"/>
<path d="M38.8378 53.8403V42.1597H40.7948V52.0665H45.5529V53.8403H38.8378Z" fill="#211A1B"/>
<path d="M27.347 53.8403V42.1597H31.3983C32.2282 42.1597 32.9245 42.327 33.4872 42.6616C34.0534 42.9962 34.4807 43.4563 34.769 44.0418C35.0609 44.6236 35.2068 45.2852 35.2068 46.0266C35.2068 46.7757 35.0609 47.4411 34.769 48.0228C34.4771 48.6046 34.0463 49.0627 33.4766 49.3973C32.9069 49.7281 32.2054 49.8935 31.3719 49.8935H28.6869V48.154H31.1081C31.5934 48.154 31.9908 48.0627 32.3003 47.8802C32.6098 47.6977 32.8384 47.4468 32.9861 47.1274C33.1373 46.808 33.2129 46.4411 33.2129 46.0266C33.2129 45.6122 33.1373 45.2472 32.9861 44.9316C32.8384 44.616 32.608 44.3707 32.295 44.1958C31.9856 44.0171 31.5864 43.9278 31.0976 43.9278H29.3041V53.8403H27.347Z" fill="#211A1B"/>
<path d="M11.9541 42.1597H14.349L17.5562 50.6236H17.6828L20.89 42.1597H23.2849V53.8403H21.407V45.8156H21.3067L18.3211 53.8061H16.9179L13.9322 45.7985H13.832V53.8403H11.9541V42.1597Z" fill="#211A1B"/>
<path d="M1 53.8403V42.1597H8.02635V43.9335H2.95704V47.1046H7.66237V48.8783H2.95704V52.0665H8.06855V53.8403H1Z" fill="#211A1B"/>
</svg>
